<?xml version="1.0" encoding="UTF-8"?>
<svg width="1200px" height="701px" viewBox="0 0 1200 701" version="1.1" xmlns="http://www.w3.org/2000/svg" xmlns:xlink="http://www.w3.org/1999/xlink">
    <!-- Generator: Sketch 61 (89581) - https://sketch.com -->
    <title>course</title>
    <desc>Created with Sketch.</desc>
    <g id="Page-1" stroke="none" stroke-width="1" fill="none" fill-rule="evenodd">
        <g id="Desktop-HD" transform="translate(0.000000, 5.000000)">
            <rect fill="#464646" x="0" y="0" width="1200" height="700"></rect>
            <g id="course" stroke="#EFEFEF">
                <polygon id="Path-57" fill="#191919" points="781 654.5 248 572 154 457.5 124.5 346.5 124.5 310 199.5 198 274.5 110 361.5 53 488 38 600 53 680.5 87 739 133.5 776 214 781 260.5 769 325.5 769 365 776 386.5 799 394 830 386.5 859.5 365 915 325.5 965.5 260.5 1007.5 227.5 1074.5 207 1134 227.5 1170 325.5 1153.5 480 1104.5 565 1007.5 627 915 654.5"></polygon>
                <polygon id="Path-58" fill="#464646" points="684 560.5 308.5 505.5 232.5 384 266 286.5 394 188 542.5 188 631.5 261 640 286.5 647.5 346.5 662.5 394 668 429.5 690.265452 452.801054 731.5 474.5 793.5 488.5 868.5 474.5 918 453 963 416.5 1033 331.5 1048.5 326 1062.5 331.5 1062.5 346.5 1062.5 384 1039.5 454.5 1003 520.5 924.5 560.5 817.5 585.5"></polygon>
            </g>
        </g>
    </g>
</svg>